STARTFONT 2.3
FONT -FontForge-Permanent Marker-Book-R-Normal--9-90-72-72-P-52-ISO10646-1
SIZE 9 72 72  4
FONTBOUNDINGBOX 15 13 -3 -3
COMMENT "Generated by fontforge, http://fontforge.sourceforge.net"
COMMENT "Copyright (c) 2010 by Font Diner, Inc. All rights reserved."
STARTPROPERTIES 40
FOUNDRY "FontForge"
FAMILY_NAME "Permanent Marker"
WEIGHT_NAME "Book"
SLANT "R"
SETWIDTH_NAME "Normal"
ADD_STYLE_NAME ""
PIXEL_SIZE 9
POINT_SIZE 90
RESOLUTION_X 72
RESOLUTION_Y 72
SPACING "P"
AVERAGE_WIDTH 52
CHARSET_REGISTRY "ISO10646"
CHARSET_ENCODING "1"
FONTNAME_REGISTRY ""
CHARSET_COLLECTIONS "ISO10646-1"
BITS_PER_PIXEL 4
FONT_NAME "PermanentMarker-Regular"
FACE_NAME "Permanent Marker Regular"
COPYRIGHT "Copyright (c) 2010 by Font Diner, Inc. All rights reserved."
FONT_VERSION "1.001"
FONT_ASCENT 7
FONT_DESCENT 2
UNDERLINE_POSITION -1
UNDERLINE_THICKNESS 1
X_HEIGHT 5
CAP_HEIGHT 6
RAW_ASCENT 799
RAW_DESCENT 200
NORM_SPACE 3
RELATIVE_WEIGHT 40
RELATIVE_SETWIDTH 50
SUPERSCRIPT_X 0
SUPERSCRIPT_Y 4
SUPERSCRIPT_SIZE 5
SUBSCRIPT_X 0
SUBSCRIPT_Y 1
SUBSCRIPT_SIZE 5
AVG_LOWERCASE_WIDTH 51
AVG_UPPERCASE_WIDTH 61
ENDPROPERTIES
CHARS 230
STARTCHAR space
ENCODING 32
SWIDTH 370 0
DWIDTH 3 0
BBX 1 1 0 0
BITMAP
00
ENDCHAR
STARTCHAR exclam
ENCODING 33
SWIDTH 260 0
DWIDTH 2 0
BBX 3 8 0 -1
BITMAP
0520
0D60
1F30
4F10
4A00
3200
D700
2000
ENDCHAR
STARTCHAR quotedbl
ENCODING 34
SWIDTH 492 0
DWIDTH 4 0
BBX 5 5 0 2
BITMAP
064550
0D9C90
2F5F40
4F5E10
061700
ENDCHAR
STARTCHAR numbersign
ENCODING 35
SWIDTH 703 0
DWIDTH 6 0
BBX 7 7 0 0
BITMAP
00212200
00A79900
2AFDED30
2BD8F410
7DEDF800
6F7E7100
4D2E1000
ENDCHAR
STARTCHAR dollar
ENCODING 36
SWIDTH 493 0
DWIDTH 4 0
BBX 5 8 0 -1
BITMAP
001300
008C30
5DDBA0
8ED200
007900
4CE300
2D6000
010000
ENDCHAR
STARTCHAR percent
ENCODING 37
SWIDTH 643 0
DWIDTH 6 0
BBX 6 7 0 0
BITMAP
013002
1DB06C
8DF5D3
267D20
06D7B0
4D4EE3
872CA1
ENDCHAR
STARTCHAR ampersand
ENCODING 38
SWIDTH 599 0
DWIDTH 5 0
BBX 6 5 0 0
BITMAP
005900
7EDC20
CEFFD1
05F500
019100
ENDCHAR
STARTCHAR quotesingle
ENCODING 39
SWIDTH 265 0
DWIDTH 2 0
BBX 3 5 0 2
BITMAP
0640
0D90
2F40
4F10
0600
ENDCHAR
STARTCHAR parenleft
ENCODING 40
SWIDTH 361 0
DWIDTH 3 0
BBX 5 10 0 -2
BITMAP
000620
008F20
06F600
1E9000
5F1000
9C0000
AA0000
AC0000
5E0000
060000
ENDCHAR
STARTCHAR parenright
ENCODING 41
SWIDTH 361 0
DWIDTH 3 0
BBX 4 10 -1 -2
BITMAP
0060
00C7
00AC
008D
009C
00E7
06F3
4E90
EA00
7000
ENDCHAR
STARTCHAR asterisk
ENCODING 42
SWIDTH 673 0
DWIDTH 6 0
BBX 7 5 0 2
BITMAP
00605100
01EDD000
3CEFFD20
16EEC000
04B29000
ENDCHAR
STARTCHAR plus
ENCODING 43
SWIDTH 579 0
DWIDTH 5 0
BBX 5 5 0 0
BITMAP
008200
01F500
BFFF80
3AE200
077000
ENDCHAR
STARTCHAR comma
ENCODING 44
SWIDTH 204 0
DWIDTH 2 0
BBX 3 4 -1 -2
BITMAP
0200
5F10
BC00
6200
ENDCHAR
STARTCHAR hyphen
ENCODING 45
SWIDTH 609 0
DWIDTH 5 0
BBX 5 2 0 1
BITMAP
AFFF90
342200
ENDCHAR
STARTCHAR period
ENCODING 46
SWIDTH 228 0
DWIDTH 2 0
BBX 3 3 -1 -1
BITMAP
0410
2F30
0200
ENDCHAR
STARTCHAR slash
ENCODING 47
SWIDTH 401 0
DWIDTH 4 0
BBX 6 8 -1 -1
BITMAP
000021
0001D4
000BA0
008C10
06E200
2F3000
4D0000
010000
ENDCHAR
STARTCHAR zero
ENCODING 48
SWIDTH 686 0
DWIDTH 6 0
BBX 6 8 0 -1
BITMAP
000950
00AFC0
0AFCE1
5F70D7
BD00BB
CC7BFA
7FFE91
022000
ENDCHAR
STARTCHAR one
ENCODING 49
SWIDTH 322 0
DWIDTH 3 0
BBX 3 7 0 0
BITMAP
1500
3F30
0F60
1F60
6F30
AE00
A900
ENDCHAR
STARTCHAR two
ENCODING 50
SWIDTH 650 0
DWIDTH 6 0
BBX 7 7 0 0
BITMAP
16861000
5FFFD200
143CF400
02CF7000
1DE40100
6FDBEF30
4EEC9610
ENDCHAR
STARTCHAR three
ENCODING 51
SWIDTH 561 0
DWIDTH 5 0
BBX 5 7 0 0
BITMAP
136630
EFFFD0
9EFE60
0EFB00
039F70
59BF80
AEC700
ENDCHAR
STARTCHAR four
ENCODING 52
SWIDTH 582 0
DWIDTH 5 0
BBX 6 8 0 -1
BITMAP
000700
640D40
7B0F70
4FFFF1
07DB10
00C600
00B900
001200
ENDCHAR
STARTCHAR five
ENCODING 53
SWIDTH 580 0
DWIDTH 5 0
BBX 6 7 0 0
BITMAP
004000
1CFDDA
8FFC96
5FE500
039E20
59AF60
3CDA10
ENDCHAR
STARTCHAR six
ENCODING 54
SWIDTH 500 0
DWIDTH 5 0
BBX 6 8 -1 -1
BITMAP
000620
008F70
02F700
08D330
0DBFE2
1FDFF2
0DFC40
001000
ENDCHAR
STARTCHAR seven
ENCODING 55
SWIDTH 576 0
DWIDTH 5 0
BBX 6 7 0 0
BITMAP
476200
DFFF30
224E70
057FC5
5FFEA4
06F400
06B000
ENDCHAR
STARTCHAR eight
ENCODING 56
SWIDTH 537 0
DWIDTH 5 0
BBX 6 8 0 -1
BITMAP
048340
3FFBE2
6E4EF2
2EFD40
2FE600
4EBA00
0CF700
001000
ENDCHAR
STARTCHAR nine
ENCODING 57
SWIDTH 529 0
DWIDTH 5 0
BBX 5 8 0 -1
BITMAP
016500
1DFF40
8FBEA0
7FEF70
012F10
005C00
007900
001100
ENDCHAR
STARTCHAR colon
ENCODING 58
SWIDTH 241 0
DWIDTH 2 0
BBX 3 5 -1 -1
BITMAP
0880
0660
0410
2F30
0200
ENDCHAR
STARTCHAR semicolon
ENCODING 59
SWIDTH 245 0
DWIDTH 2 0
BBX 3 6 -1 -2
BITMAP
0880
0670
0200
1F50
7E10
3400
ENDCHAR
STARTCHAR less
ENCODING 60
SWIDTH 625 0
DWIDTH 6 0
BBX 6 5 0 0
BITMAP
000031
015CF6
BFD820
5DE910
004870
ENDCHAR
STARTCHAR equal
ENCODING 61
SWIDTH 586 0
DWIDTH 5 0
BBX 5 4 0 0
BITMAP
6EFFC0
355510
DEDC40
100000
ENDCHAR
STARTCHAR greater
ENCODING 62
SWIDTH 634 0
DWIDTH 6 0
BBX 7 5 -1 0
BITMAP
02200000
04ED7100
002BFE10
18ED8400
3B500000
ENDCHAR
STARTCHAR question
ENCODING 63
SWIDTH 556 0
DWIDTH 5 0
BBX 6 8 0 -1
BITMAP
069740
2FFFF8
011BF6
03DE60
0BA100
230000
7D0000
120000
ENDCHAR
STARTCHAR at
ENCODING 64
SWIDTH 732 0
DWIDTH 7 0
BBX 7 8 0 -1
BITMAP
00077000
005ED700
08D56E20
9D8EB960
F6FABC30
D38A8300
4DDDD400
00132000
ENDCHAR
STARTCHAR A
ENCODING 65
SWIDTH 702 0
DWIDTH 6 0
BBX 8 7 -1 0
BITMAP
00005200
0018FB00
008FFD00
01EC7F40
07FDDFE2
0EA88E90
1E403F50
ENDCHAR
STARTCHAR B
ENCODING 66
SWIDTH 686 0
DWIDTH 6 0
BBX 7 8 -1 -1
BITMAP
01478600
2EFECF70
08C8CF50
00CFFC00
01FA4B90
06F7AFC0
06FFD810
00120000
ENDCHAR
STARTCHAR C
ENCODING 67
SWIDTH 611 0
DWIDTH 6 0
BBX 6 7 0 0
BITMAP
000350
019FF3
3EFC60
DE6000
E60000
BDA860
19DFC0
ENDCHAR
STARTCHAR D
ENCODING 68
SWIDTH 588 0
DWIDTH 5 0
BBX 6 7 0 0
BITMAP
340000
6FD400
6B7D60
5C02E1
8B3BE1
CFFD30
AC6000
ENDCHAR
STARTCHAR E
ENCODING 69
SWIDTH 626 0
DWIDTH 6 0
BBX 6 8 0 -1
BITMAP
001463
3CFFFA
3FB620
3FFF90
AE8720
DC89B2
8FFEA1
010000
ENDCHAR
STARTCHAR F
ENCODING 70
SWIDTH 575 0
DWIDTH 5 0
BBX 8 7 -1 0
BITMAP
00015870
04CFFDB3
04ED1000
05EB6500
1FFFE900
0BB20000
0A700000
ENDCHAR
STARTCHAR G
ENCODING 71
SWIDTH 789 0
DWIDTH 7 0
BBX 8 7 0 0
BITMAP
00016100
004DF800
06FE7000
5FC26A20
DD106FF4
DC9CFFD2
5EEC8400
ENDCHAR
STARTCHAR H
ENCODING 72
SWIDTH 695 0
DWIDTH 6 0
BBX 7 8 0 -1
BITMAP
02002300
1E206C00
3F609F10
5F33CE00
9FEFFB00
DFA7F600
DB02D300
10000000
ENDCHAR
STARTCHAR I
ENCODING 73
SWIDTH 515 0
DWIDTH 5 0
BBX 7 8 -1 -1
BITMAP
00578820
00EFFC80
0019B000
000D7000
005F3000
15CE5000
3FDCA000
01000000
ENDCHAR
STARTCHAR J
ENCODING 74
SWIDTH 668 0
DWIDTH 6 0
BBX 9 7 -1 0
BITMAP
0024566300
05FFFFFF10
01637F2100
00009C0000
0000E80000
1A7BF30000
1BDE600000
ENDCHAR
STARTCHAR K
ENCODING 75
SWIDTH 776 0
DWIDTH 7 0
BBX 8 7 0 0
BITMAP
01600100
08F35E80
0ED9FD40
4FFFA100
9FFF5000
CF79FFE1
9A003860
ENDCHAR
STARTCHAR L
ENCODING 76
SWIDTH 632 0
DWIDTH 6 0
BBX 6 8 0 -1
BITMAP
045000
0BF000
1FA000
6F4000
BE0000
DDACA2
9FDBB5
010000
ENDCHAR
STARTCHAR M
ENCODING 77
SWIDTH 973 0
DWIDTH 9 0
BBX 9 8 0 -1
BITMAP
0062000400
03FE107F70
0BFF39FF80
3FFFFFDF60
AF5DD76F30
EC00008F10
C500005800
1000000000
ENDCHAR
STARTCHAR N
ENCODING 78
SWIDTH 684 0
DWIDTH 6 0
BBX 8 7 -1 0
BITMAP
00050050
005F64F4
00CF68F1
04FF3CC0
0BFF9FA0
1FD9FF40
0A61A700
ENDCHAR
STARTCHAR O
ENCODING 79
SWIDTH 744 0
DWIDTH 7 0
BBX 7 8 0 -1
BITMAP
00048000
006FF400
07FDE700
4FA06E10
BC002F40
DC7AEF30
6EFEA300
00100000
ENDCHAR
STARTCHAR P
ENCODING 80
SWIDTH 639 0
DWIDTH 6 0
BBX 6 8 0 -1
BITMAP
004871
05FFFA
1CB4CF
7FEFFB
8FDA60
7F1000
8D0000
010000
ENDCHAR
STARTCHAR Q
ENCODING 81
SWIDTH 744 0
DWIDTH 7 0
BBX 7 8 0 -1
BITMAP
00066000
002EF700
04EEAE10
5FC51D60
EC1CCF60
E99DFC00
8FFBBD00
01001600
ENDCHAR
STARTCHAR R
ENCODING 82
SWIDTH 646 0
DWIDTH 6 0
BBX 6 8 0 -1
BITMAP
002700
01DFA0
2DD9F2
6FBDF2
AFFA30
CFF941
B67DFC
000032
ENDCHAR
STARTCHAR S
ENCODING 83
SWIDTH 576 0
DWIDTH 5 0
BBX 7 8 0 -1
BITMAP
00268500
4CFFFE10
DFE31100
6BDE1000
000C7000
27DF3000
7FC30000
01000000
ENDCHAR
STARTCHAR T
ENCODING 84
SWIDTH 607 0
DWIDTH 5 0
BBX 7 8 0 -1
BITMAP
12367850
EFFFFEB0
46CD1000
02F70000
07F10000
0AA00000
07C00000
00100000
ENDCHAR
STARTCHAR U
ENCODING 85
SWIDTH 695 0
DWIDTH 6 0
BBX 7 7 0 0
BITMAP
00000400
27000D40
6F202F60
8F109F30
8F29F900
5FFFB000
1BD80000
ENDCHAR
STARTCHAR V
ENCODING 86
SWIDTH 583 0
DWIDTH 5 0
BBX 6 7 0 0
BITMAP
230025
6D01DD
5F2AF5
5F9F80
2FFC00
0FF300
09B000
ENDCHAR
STARTCHAR W
ENCODING 87
SWIDTH 994 0
DWIDTH 9 0
BBX 10 7 0 0
BITMAP
0210000050
0CA04903F4
3F70DF09F2
7F37FC1EB0
AE4FFBAF40
BEFE8FFB00
3DB20AD200
ENDCHAR
STARTCHAR X
ENCODING 88
SWIDTH 623 0
DWIDTH 6 0
BBX 8 8 -1 -1
BITMAP
01400030
04F72BF1
01CFEE60
007FE200
04FFF300
0EC2DD00
1F205D00
02000000
ENDCHAR
STARTCHAR Y
ENCODING 89
SWIDTH 493 0
DWIDTH 4 0
BBX 6 8 0 -1
BITMAP
340181
6E1CF4
4FBF60
1EFA00
0BE200
4F7000
8E0000
020000
ENDCHAR
STARTCHAR Z
ENCODING 90
SWIDTH 664 0
DWIDTH 6 0
BBX 8 8 -1 -1
BITMAP
00466640
009FFFF2
0002BF90
004DF700
07FD4000
1FE69D60
0DFFD910
01520000
ENDCHAR
STARTCHAR bracketleft
ENCODING 91
SWIDTH 387 0
DWIDTH 3 0
BBX 8 11 -1 -2
BITMAP
00001200
003EFFF3
004F4320
008C0000
00C80000
01F40000
05F10000
0AC00000
0E710000
3FFFB000
06431000
ENDCHAR
STARTCHAR backslash
ENCODING 92
SWIDTH 352 0
DWIDTH 3 0
BBX 3 8 0 -1
BITMAP
4300
6C00
3E00
0F10
0D40
0A60
0980
0110
ENDCHAR
STARTCHAR bracketright
ENCODING 93
SWIDTH 403 0
DWIDTH 4 0
BBX 7 11 -3 -2
BITMAP
00012200
005FFF90
00153D80
00001F50
00004F10
00008C00
0000C800
0002F400
0017E000
6EFFA000
26320000
ENDCHAR
STARTCHAR asciicircum
ENCODING 94
SWIDTH 518 0
DWIDTH 5 0
BBX 5 6 0 1
BITMAP
004500
00DC00
08EE00
4F6F10
D80D10
400200
ENDCHAR
STARTCHAR underscore
ENCODING 95
SWIDTH 708 0
DWIDTH 6 0
BBX 8 3 -1 -1
BITMAP
00111000
BFFFFFD2
24222210
ENDCHAR
STARTCHAR grave
ENCODING 96
SWIDTH 754 0
DWIDTH 7 0
BBX 4 3 2 4
BITMAP
1800
3EA0
03D3
ENDCHAR
STARTCHAR a
ENCODING 97
SWIDTH 581 0
DWIDTH 5 0
BBX 7 7 -1 -1
BITMAP
00022000
004CE000
00DDF100
06F7FB10
0DCDEB00
1E20D700
00001000
ENDCHAR
STARTCHAR b
ENCODING 98
SWIDTH 573 0
DWIDTH 5 0
BBX 6 7 -1 -1
BITMAP
014650
2EFBF8
06DBF4
02FDC4
07D3BC
09FFB3
012200
ENDCHAR
STARTCHAR c
ENCODING 99
SWIDTH 513 0
DWIDTH 5 0
BBX 5 6 0 0
BITMAP
000400
04DF50
6FC400
E80000
D84300
4CFE20
ENDCHAR
STARTCHAR d
ENCODING 100
SWIDTH 497 0
DWIDTH 4 0
BBX 5 6 0 0
BITMAP
210000
7FA100
786C10
781C40
BCEB00
BC5000
ENDCHAR
STARTCHAR e
ENCODING 101
SWIDTH 521 0
DWIDTH 5 0
BBX 5 7 0 -1
BITMAP
001430
4DFFA0
4F9400
7FFB00
D94610
BFFD30
021000
ENDCHAR
STARTCHAR f
ENCODING 102
SWIDTH 455 0
DWIDTH 4 0
BBX 7 7 -1 -1
BITMAP
00026600
05DFCA20
04F40000
1BFCB000
0DB63000
0C300000
01000000
ENDCHAR
STARTCHAR g
ENCODING 103
SWIDTH 652 0
DWIDTH 6 0
BBX 7 6 0 0
BITMAP
00031000
019F9000
1CE61000
AD24E700
E769FE20
8FEB7200
ENDCHAR
STARTCHAR h
ENCODING 104
SWIDTH 582 0
DWIDTH 5 0
BBX 6 7 0 -1
BITMAP
010030
3B03D0
5E05F1
8D7DD0
DFBE90
E70C50
100000
ENDCHAR
STARTCHAR i
ENCODING 105
SWIDTH 320 0
DWIDTH 3 0
BBX 3 7 0 -1
BITMAP
0300
0D40
2F40
6E00
7C00
4C00
0100
ENDCHAR
STARTCHAR j
ENCODING 106
SWIDTH 534 0
DWIDTH 5 0
BBX 7 6 -1 0
BITMAP
00134420
07FFFEC0
0131F200
0005D000
053C9000
1DFC2000
ENDCHAR
STARTCHAR k
ENCODING 107
SWIDTH 645 0
DWIDTH 6 0
BBX 6 7 0 -1
BITMAP
022000
0CA3D7
2FBFB2
8FF900
CFAEA8
B804A7
100000
ENDCHAR
STARTCHAR l
ENCODING 108
SWIDTH 533 0
DWIDTH 5 0
BBX 5 7 0 -1
BITMAP
041000
0E7000
4F2000
9C0000
DA6610
AFDC70
010000
ENDCHAR
STARTCHAR m
ENCODING 109
SWIDTH 814 0
DWIDTH 7 0
BBX 8 7 0 -1
BITMAP
00400020
08F509E2
1EFAAFF1
7EDFEAE0
DA2518C0
D3000760
10000000
ENDCHAR
STARTCHAR n
ENCODING 110
SWIDTH 564 0
DWIDTH 5 0
BBX 7 6 -1 0
BITMAP
00210300
00AC2F30
02FB5E00
09FAAC00
1FCEF800
0C37B100
ENDCHAR
STARTCHAR o
ENCODING 111
SWIDTH 628 0
DWIDTH 6 0
BBX 6 7 0 -1
BITMAP
001600
01BF60
1DDBA0
9C11E2
D748F4
8FFD70
011000
ENDCHAR
STARTCHAR p
ENCODING 112
SWIDTH 524 0
DWIDTH 5 0
BBX 5 7 0 -1
BITMAP
005610
0AFFB0
4F6AE0
AFFE60
9C3000
A80000
100000
ENDCHAR
STARTCHAR q
ENCODING 113
SWIDTH 625 0
DWIDTH 6 0
BBX 6 7 0 -1
BITMAP
002500
009F90
1BE6E2
BD67C6
F57FE2
BFEBD0
020060
ENDCHAR
STARTCHAR r
ENCODING 114
SWIDTH 541 0
DWIDTH 5 0
BBX 5 7 0 -1
BITMAP
004200
05FD10
5F6E50
9FED20
CFB200
C7CFB0
000230
ENDCHAR
STARTCHAR s
ENCODING 115
SWIDTH 463 0
DWIDTH 4 0
BBX 6 7 0 -1
BITMAP
002640
5CFEE1
DFA100
259800
13B900
8FA100
110000
ENDCHAR
STARTCHAR t
ENCODING 116
SWIDTH 479 0
DWIDTH 4 0
BBX 6 7 0 -1
BITMAP
013463
EFFEC9
25F300
08B000
0D5000
0C4000
011000
ENDCHAR
STARTCHAR u
ENCODING 117
SWIDTH 584 0
DWIDTH 5 0
BBX 6 6 0 0
BITMAP
000020
3600A5
6D00E6
8B09E1
7EDF50
2ED500
ENDCHAR
STARTCHAR v
ENCODING 118
SWIDTH 485 0
DWIDTH 4 0
BBX 5 7 0 -1
BITMAP
110040
6A08E0
5E4F50
4FD900
2FE100
0D6000
010000
ENDCHAR
STARTCHAR w
ENCODING 119
SWIDTH 825 0
DWIDTH 7 0
BBX 8 6 0 0
BITMAP
02000012
1E41A07B
5F1AF1D9
9B4FC5F2
BCECEEA0
5E91AD10
ENDCHAR
STARTCHAR x
ENCODING 120
SWIDTH 506 0
DWIDTH 5 0
BBX 6 7 -1 -1
BITMAP
011001
06E39E
01DFD4
02DF40
0CCAD0
1E11E1
020000
ENDCHAR
STARTCHAR y
ENCODING 121
SWIDTH 400 0
DWIDTH 4 0
BBX 5 7 0 -1
BITMAP
310410
7B4F60
4EE900
0ED000
3F4000
8B0000
120000
ENDCHAR
STARTCHAR z
ENCODING 122
SWIDTH 547 0
DWIDTH 5 0
BBX 6 7 0 -1
BITMAP
044430
0CEFF2
008F60
2CE500
EC4740
EFFC40
251000
ENDCHAR
STARTCHAR braceleft
ENCODING 123
SWIDTH 448 0
DWIDTH 4 0
BBX 8 11 0 -2
BITMAP
00001100
005EFFE1
007D4310
00B90000
3AF50000
BF600000
2DD00000
0C900000
2F510000
6FFF8000
16320000
ENDCHAR
STARTCHAR bar
ENCODING 124
SWIDTH 332 0
DWIDTH 3 0
BBX 3 8 0 -1
BITMAP
0050
04E0
0890
0D40
3E00
9900
E400
1000
ENDCHAR
STARTCHAR braceright
ENCODING 125
SWIDTH 481 0
DWIDTH 4 0
BBX 8 11 -3 -2
BITMAP
00012200
006FFF70
00253E70
00002F30
00006F10
00004ED0
0000AFB1
0003F400
0018D000
7EFF8000
36320000
ENDCHAR
STARTCHAR asciitilde
ENCODING 126
SWIDTH 581 0
DWIDTH 5 0
BBX 5 3 0 1
BITMAP
286270
C9EE60
001100
ENDCHAR
STARTCHAR uni00A0
ENCODING 160
SWIDTH 370 0
DWIDTH 3 0
BBX 1 1 0 0
BITMAP
00
ENDCHAR
STARTCHAR exclamdown
ENCODING 161
SWIDTH 260 0
DWIDTH 2 0
BBX 3 8 0 -1
BITMAP
0910
2D20
1300
9A00
C800
E500
E100
1000
ENDCHAR
STARTCHAR cent
ENCODING 162
SWIDTH 488 0
DWIDTH 4 0
BBX 5 8 0 -1
BITMAP
003100
00B900
1AFC10
BC3000
D51000
4FFD00
1F2000
010000
ENDCHAR
STARTCHAR sterling
ENCODING 163
SWIDTH 586 0
DWIDTH 5 0
BBX 6 6 0 0
BITMAP
008CA1
06E681
9EFC20
5F6410
CFDF80
354300
ENDCHAR
STARTCHAR currency
ENCODING 164
SWIDTH 509 0
DWIDTH 5 0
BBX 5 5 0 0
BITMAP
48A840
3FFC20
9CAC00
CFEA00
802500
ENDCHAR
STARTCHAR yen
ENCODING 165
SWIDTH 563 0
DWIDTH 5 0
BBX 5 6 0 0
BITMAP
071280
0D6DC0
0AEE10
BFFF80
3CB100
0E3000
ENDCHAR
STARTCHAR brokenbar
ENCODING 166
SWIDTH 301 0
DWIDTH 3 0
BBX 4 8 -1 -1
BITMAP
0014
005C
00B7
0061
0450
0C70
1F20
0100
ENDCHAR
STARTCHAR section
ENCODING 167
SWIDTH 630 0
DWIDTH 6 0
BBX 6 9 0 -1
BITMAP
000010
08CFF6
3FD652
0DFD50
8EAAF3
6FCEE1
05CFA0
78AFD0
8CB720
ENDCHAR
STARTCHAR dieresis
ENCODING 168
SWIDTH 754 0
DWIDTH 7 0
BBX 4 2 2 5
BITMAP
6245
C469
ENDCHAR
STARTCHAR copyright
ENCODING 169
SWIDTH 614 0
DWIDTH 6 0
BBX 6 6 0 1
BITMAP
004710
0B96A1
7ABA76
B85067
A5B7C2
299C30
ENDCHAR
STARTCHAR ordfeminine
ENCODING 170
SWIDTH 454 0
DWIDTH 4 0
BBX 4 5 0 1
BITMAP
03A1
2FF4
9FED
E7D8
1010
ENDCHAR
STARTCHAR guillemotleft
ENCODING 171
SWIDTH 566 0
DWIDTH 5 0
BBX 5 5 0 -1
BITMAP
047290
8E9E60
E6C900
3D3C40
010010
ENDCHAR
STARTCHAR logicalnot
ENCODING 172
SWIDTH 698 0
DWIDTH 6 0
BBX 6 4 0 0
BITMAP
000100
CFFFE6
3432D6
0002E1
ENDCHAR
STARTCHAR sfthyphen
ENCODING 173
SWIDTH 608 0
DWIDTH 5 0
BBX 5 2 0 1
BITMAP
AFFF90
342200
ENDCHAR
STARTCHAR registered
ENCODING 174
SWIDTH 624 0
DWIDTH 6 0
BBX 6 6 0 1
BITMAP
004710
0AA8A2
5A9C97
A5FA58
999CD3
199C40
ENDCHAR
STARTCHAR macron
ENCODING 175
SWIDTH 754 0
DWIDTH 7 0
BBX 4 2 2 5
BITMAP
5993
6883
ENDCHAR
STARTCHAR degree
ENCODING 176
SWIDTH 284 0
DWIDTH 3 0
BBX 4 4 0 4
BITMAP
0030
08F1
3ED5
0650
ENDCHAR
STARTCHAR plusminus
ENCODING 177
SWIDTH 559 0
DWIDTH 5 0
BBX 6 8 -1 -1
BITMAP
000110
000A80
026EC4
06EFB9
005F10
014820
2FFED3
020000
ENDCHAR
STARTCHAR twosuperior
ENCODING 178
SWIDTH 386 0
DWIDTH 3 0
BBX 4 4 0 3
BITMAP
1640
3CF5
2ED5
3CB7
ENDCHAR
STARTCHAR threesuperior
ENCODING 179
SWIDTH 366 0
DWIDTH 3 0
BBX 4 4 0 3
BITMAP
1461
4FF4
08F6
0BB3
ENDCHAR
STARTCHAR acute
ENCODING 180
SWIDTH 754 0
DWIDTH 7 0
BBX 4 3 2 4
BITMAP
0181
0BE2
4C20
ENDCHAR
STARTCHAR mu
ENCODING 181
SWIDTH 569 0
DWIDTH 5 0
BBX 6 6 -1 -1
BITMAP
011008
05A02F
08A09B
0BDBE3
0FEC30
1D0000
ENDCHAR
STARTCHAR paragraph
ENCODING 182
SWIDTH 729 0
DWIDTH 7 0
BBX 8 8 0 -1
BITMAP
00369B70
2DFFDFB1
6F6E7F10
2DCF9D00
01AFFE10
008AD700
00B7B900
00101100
ENDCHAR
STARTCHAR periodcentered
ENCODING 183
SWIDTH 226 0
DWIDTH 2 0
BBX 2 2 0 2
BITMAP
8B
33
ENDCHAR
STARTCHAR cedilla
ENCODING 184
SWIDTH 754 0
DWIDTH 7 0
BBX 4 4 2 -3
BITMAP
0420
0F70
15D5
5B91
ENDCHAR
STARTCHAR onesuperior
ENCODING 185
SWIDTH 206 0
DWIDTH 2 0
BBX 2 4 0 3
BITMAP
04
2F
3E
58
ENDCHAR
STARTCHAR ordmasculine
ENCODING 186
SWIDTH 445 0
DWIDTH 4 0
BBX 4 5 0 1
BITMAP
03C2
3EF7
CBAC
BFF8
0310
ENDCHAR
STARTCHAR guillemotright
ENCODING 187
SWIDTH 595 0
DWIDTH 5 0
BBX 6 5 -1 -1
BITMAP
083560
04E5C8
05E7D9
2D2C50
010100
ENDCHAR
STARTCHAR onequarter
ENCODING 188
SWIDTH 705 0
DWIDTH 6 0
BBX 6 8 0 -1
BITMAP
130050
3D06D0
4D3E40
68D723
0C9CAA
8C08F9
A700F1
100020
ENDCHAR
STARTCHAR onehalf
ENCODING 189
SWIDTH 750 0
DWIDTH 7 0
BBX 7 8 0 -1
BITMAP
13005000
3D06D000
4D3E4000
68D83000
0C99EA00
8C06E800
A70AEC20
10000000
ENDCHAR
STARTCHAR threequarters
ENCODING 190
SWIDTH 818 0
DWIDTH 7 0
BBX 7 8 0 -1
BITMAP
17820220
3EF42E50
1BF3D800
3A9D8230
01C8DAA0
0C80AF70
2E104C00
01000100
ENDCHAR
STARTCHAR questiondown
ENCODING 191
SWIDTH 556 0
DWIDTH 5 0
BBX 6 8 -1 -1
BITMAP
000062
0000C7
000140
005D90
1BF900
7FB561
5EFFE2
003420
ENDCHAR
STARTCHAR Agrave
ENCODING 192
SWIDTH 702 0
DWIDTH 6 0
BBX 8 10 -1 0
BITMAP
00018000
0003EA00
00003D30
00005200
0018FB00
008FFD00
01EC7F40
07FDDFE2
0EA88E90
1E403F50
ENDCHAR
STARTCHAR Aacute
ENCODING 193
SWIDTH 702 0
DWIDTH 6 0
BBX 8 10 -1 0
BITMAP
00000810
0000AE30
0003C200
00005200
0018FB00
008FFD00
01EC7F40
07FDDFE2
0EA88E90
1E403F50
ENDCHAR
STARTCHAR Acircumflex
ENCODING 194
SWIDTH 702 0
DWIDTH 6 0
BBX 8 9 -1 0
BITMAP
0001BA00
000B9B90
00035220
0018FB00
008FFD00
01EC7F40
07FDDFE2
0EA88E90
1E403F50
ENDCHAR
STARTCHAR Atilde
ENCODING 195
SWIDTH 702 0
DWIDTH 6 0
BBX 8 9 -1 0
BITMAP
0002A865
00099DD2
00005200
0018FB00
008FFD00
01EC7F40
07FDDFE2
0EA88E90
1E403F50
ENDCHAR
STARTCHAR Adieresis
ENCODING 196
SWIDTH 702 0
DWIDTH 6 0
BBX 8 9 -1 0
BITMAP
00063360
000B65A0
00005200
0018FB00
008FFD00
01EC7F40
07FDDFE2
0EA88E90
1E403F50
ENDCHAR
STARTCHAR Aring
ENCODING 197
SWIDTH 702 0
DWIDTH 6 0
BBX 8 9 -1 0
BITMAP
00001800
0000BD40
0001FE50
0018FB00
008FFD00
01EC7F40
07FDDFE2
0EA88E90
1E403F50
ENDCHAR
STARTCHAR AE
ENCODING 198
SWIDTH 1153 0
DWIDTH 10 0
BBX 12 8 -1 -1
BITMAP
000034002562
0006EF5DFFF6
006FFF7F9510
01EC7F9FFF50
0AFDEFFC8710
4F799FFA8AA0
7C00ADCFFD80
000000010000
ENDCHAR
STARTCHAR Ccedilla
ENCODING 199
SWIDTH 611 0
DWIDTH 6 0
BBX 6 10 0 -3
BITMAP
000350
019FF3
3EFC60
DE6000
E60000
BDA860
1BFFC0
0AA000
03B900
2CB400
ENDCHAR
STARTCHAR Egrave
ENCODING 200
SWIDTH 626 0
DWIDTH 6 0
BBX 6 11 0 -1
BITMAP
006400
009F40
0007A0
001463
3CFFFA
3FB620
3FFF90
AE8720
DC89B2
8FFEA1
010000
ENDCHAR
STARTCHAR Eacute
ENCODING 201
SWIDTH 626 0
DWIDTH 6 0
BBX 6 11 0 -1
BITMAP
000181
000BE2
004C20
001463
3CFFFA
3FB620
3FFF90
AE8720
DC89B2
8FFEA1
010000
ENDCHAR
STARTCHAR Ecircumflex
ENCODING 202
SWIDTH 626 0
DWIDTH 6 0
BBX 6 10 0 -1
BITMAP
003D70
01E7D5
004484
3CFFFA
3FB620
3FFF90
AE8720
DC89B2
8FFEA1
010000
ENDCHAR
STARTCHAR Edieresis
ENCODING 203
SWIDTH 626 0
DWIDTH 6 0
BBX 6 10 0 -1
BITMAP
007164
01C386
001463
3CFFFA
3FB620
3FFF90
AE8720
DC89B2
8FFEA1
010000
ENDCHAR
STARTCHAR Igrave
ENCODING 204
SWIDTH 515 0
DWIDTH 5 0
BBX 7 11 -1 -1
BITMAP
00081000
001DD100
0001A700
00578820
00EFFC80
0019B000
000D7000
005F3000
15CE5000
3FDCA000
01000000
ENDCHAR
STARTCHAR Iacute
ENCODING 205
SWIDTH 515 0
DWIDTH 5 0
BBX 7 11 -1 -1
BITMAP
00000540
00005F70
0000C600
00578820
00EFFC80
0019B000
000D7000
005F3000
15CE5000
3FDCA000
01000000
ENDCHAR
STARTCHAR Icircumflex
ENCODING 206
SWIDTH 515 0
DWIDTH 5 0
BBX 7 11 -1 -1
BITMAP
0002C800
000E8D70
00030120
00578820
00EFFC80
0019B000
000D7000
005F3000
15CE5000
3FDCA000
01000000
ENDCHAR
STARTCHAR Idieresis
ENCODING 207
SWIDTH 515 0
DWIDTH 5 0
BBX 7 10 -1 -1
BITMAP
00062450
000C4690
00578820
00EFFC80
0019B000
000D7000
005F3000
15CE5000
3FDCA000
01000000
ENDCHAR
STARTCHAR Eth
ENCODING 208
SWIDTH 656 0
DWIDTH 6 0
BBX 7 7 -1 0
BITMAP
00520000
00CFA100
00C89D20
1EFF3890
08F86E90
03FFFA10
02EA3000
ENDCHAR
STARTCHAR Ntilde
ENCODING 209
SWIDTH 684 0
DWIDTH 6 0
BBX 8 9 -1 0
BITMAP
00019957
0006ACE3
00050050
005F64F4
00CF68F1
04FF3CC0
0BFF9FA0
1FD9FF40
0A61A700
ENDCHAR
STARTCHAR Ograve
ENCODING 210
SWIDTH 744 0
DWIDTH 7 0
BBX 7 11 0 -1
BITMAP
00045000
0007F600
00005C00
00048000
006FF400
07FDE700
4FA06E10
BC002F40
DC7AEF30
6EFEA300
00100000
ENDCHAR
STARTCHAR Oacute
ENCODING 211
SWIDTH 744 0
DWIDTH 7 0
BBX 7 11 0 -1
BITMAP
00008100
000AE300
003C2000
00048000
006FF400
07FDE700
4FA06E10
BC002F40
DC7AEF30
6EFEA300
00100000
ENDCHAR
STARTCHAR Ocircumflex
ENCODING 212
SWIDTH 744 0
DWIDTH 7 0
BBX 7 10 0 -1
BITMAP
0006D300
005E7E20
00168300
006FF400
07FDE700
4FA06E10
BC002F40
DC7AEF30
6EFEA300
00100000
ENDCHAR
STARTCHAR Otilde
ENCODING 213
SWIDTH 744 0
DWIDTH 7 0
BBX 7 10 0 -1
BITMAP
00199570
006ACE30
00048000
006FF400
07FDE700
4FA06E10
BC002F40
DC7AEF30
6EFEA300
00100000
ENDCHAR
STARTCHAR Odieresis
ENCODING 214
SWIDTH 744 0
DWIDTH 7 0
BBX 7 10 0 -1
BITMAP
00361810
006A1B20
00048000
006FF400
07FDE700
4FA06E10
BC002F40
DC7AEF30
6EFEA300
00100000
ENDCHAR
STARTCHAR multiply
ENCODING 215
SWIDTH 490 0
DWIDTH 4 0
BBX 5 5 0 0
BITMAP
350620
3FBD20
1DD100
BAD500
B05600
ENDCHAR
STARTCHAR Oslash
ENCODING 216
SWIDTH 744 0
DWIDTH 7 0
BBX 7 9 0 -2
BITMAP
00048420
006FFF40
07FEFC00
4FABEE10
BC8E5F40
DDFEEF30
6FFEA300
1F500000
01000000
ENDCHAR
STARTCHAR Ugrave
ENCODING 217
SWIDTH 695 0
DWIDTH 6 0
BBX 7 9 0 0
BITMAP
00810000
01DC1000
001B6400
27000D40
6F202F60
8F109F30
8F29F900
5FFFB000
1BD80000
ENDCHAR
STARTCHAR Uacute
ENCODING 218
SWIDTH 695 0
DWIDTH 6 0
BBX 7 10 0 0
BITMAP
00005400
0005F700
000C6000
00000400
27000D40
6F202F60
8F109F30
8F29F900
5FFFB000
1BD80000
ENDCHAR
STARTCHAR Ucircumflex
ENCODING 219
SWIDTH 695 0
DWIDTH 6 0
BBX 7 9 0 0
BITMAP
002C8000
00E8D700
00301600
27000D40
6F202F60
8F109F30
8F29F900
5FFFB000
1BD80000
ENDCHAR
STARTCHAR Udieresis
ENCODING 220
SWIDTH 695 0
DWIDTH 6 0
BBX 7 9 0 0
BITMAP
00715500
00C47800
00000400
27000D40
6F202F60
8F109F30
8F29F900
5FFFB000
1BD80000
ENDCHAR
STARTCHAR Yacute
ENCODING 221
SWIDTH 493 0
DWIDTH 4 0
BBX 6 11 0 -1
BITMAP
000180
001CD1
006B10
340181
6E1CF4
4FBF60
1EFA00
0BE200
4F7000
8E0000
020000
ENDCHAR
STARTCHAR Thorn
ENCODING 222
SWIDTH 680 0
DWIDTH 6 0
BBX 7 7 0 0
BITMAP
05000000
1F842000
4FEEFA00
8F22DF20
AF9FE600
BFB61000
7C000000
ENDCHAR
STARTCHAR germandbls
ENCODING 223
SWIDTH 931 0
DWIDTH 8 0
BBX 10 7 0 -1
BITMAP
0026402550
5CFEEBFEE3
DFA1AFC200
2598158B00
13B9029C00
8FA15FC200
1100020000
ENDCHAR
STARTCHAR agrave
ENCODING 224
SWIDTH 581 0
DWIDTH 5 0
BBX 7 10 -1 -1
BITMAP
00072000
000CE200
00009800
00022000
004CE000
00DDF100
06F7FB10
0DCDEB00
1E20D700
00001000
ENDCHAR
STARTCHAR aacute
ENCODING 225
SWIDTH 581 0
DWIDTH 5 0
BBX 7 10 -1 -1
BITMAP
00006400
0006F600
000D5000
00022000
004CE000
00DDF100
06F7FB10
0DCDEB00
1E20D700
00001000
ENDCHAR
STARTCHAR acircumflex
ENCODING 226
SWIDTH 581 0
DWIDTH 5 0
BBX 7 9 -1 -1
BITMAP
0008C200
007D8E00
00232300
004CE000
00DDF100
06F7FB10
0DCDEB00
1E20D700
00001000
ENDCHAR
STARTCHAR atilde
ENCODING 227
SWIDTH 581 0
DWIDTH 5 0
BBX 7 9 -1 -1
BITMAP
001A9660
0089DD30
00022000
004CE000
00DDF100
06F7FB10
0DCDEB00
1E20D700
00001000
ENDCHAR
STARTCHAR adieresis
ENCODING 228
SWIDTH 581 0
DWIDTH 5 0
BBX 7 9 -1 -1
BITMAP
00260820
005B1B30
00022000
004CE000
00DDF100
06F7FB10
0DCDEB00
1E20D700
00001000
ENDCHAR
STARTCHAR aring
ENCODING 229
SWIDTH 581 0
DWIDTH 5 0
BBX 7 9 -1 -1
BITMAP
00003100
0004E700
000CDB00
004DE100
00DDF100
06F7FB10
0DCDEB00
1E20D700
00001000
ENDCHAR
STARTCHAR ae
ENCODING 230
SWIDTH 948 0
DWIDTH 9 0
BBX 10 7 -1 -1
BITMAP
0000300242
003BF6DFE7
01DDF8F820
08E7FDFF90
2FBCFF7460
7A04EDFFC2
0000101000
ENDCHAR
STARTCHAR ccedilla
ENCODING 231
SWIDTH 513 0
DWIDTH 5 0
BBX 5 9 0 -3
BITMAP
000400
04DF50
6FC400
E80000
D84300
4DFE20
0C8000
15D500
187100
ENDCHAR
STARTCHAR egrave
ENCODING 232
SWIDTH 521 0
DWIDTH 5 0
BBX 5 10 0 -1
BITMAP
063000
0AE300
008900
001430
4DFFA0
4F9400
7FFB00
D94610
BFFD30
021000
ENDCHAR
STARTCHAR eacute
ENCODING 233
SWIDTH 521 0
DWIDTH 5 0
BBX 5 10 0 -1
BITMAP
000630
008F50
01D400
001430
4DFFA0
4F9400
7FFB00
D94610
BFFD30
021000
ENDCHAR
STARTCHAR ecircumflex
ENCODING 234
SWIDTH 521 0
DWIDTH 5 0
BBX 6 9 0 -1
BITMAP
007D30
06D7E1
013460
4DFFA0
4F9400
7FFB00
D94610
BFFD30
021000
ENDCHAR
STARTCHAR edieresis
ENCODING 235
SWIDTH 521 0
DWIDTH 5 0
BBX 6 9 0 -1
BITMAP
026082
05B1B3
001430
4DFFA0
4F9400
7FFB00
D94610
BFFD30
021000
ENDCHAR
STARTCHAR igrave
ENCODING 236
SWIDTH 320 0
DWIDTH 3 0
BBX 4 10 0 -1
BITMAP
1810
2EB0
02C4
0300
0D40
2F40
6E00
7C00
4C00
0100
ENDCHAR
STARTCHAR iacute
ENCODING 237
SWIDTH 320 0
DWIDTH 3 0
BBX 5 10 0 -1
BITMAP
000550
005F70
00C600
030000
0D4000
2F4000
6E0000
7C0000
4C0000
010000
ENDCHAR
STARTCHAR icircumflex
ENCODING 238
SWIDTH 320 0
DWIDTH 3 0
BBX 4 9 0 -1
BITMAP
08C2
7D8E
2403
0D40
2F40
6E00
7C00
4C00
0100
ENDCHAR
STARTCHAR idieresis
ENCODING 239
SWIDTH 320 0
DWIDTH 3 0
BBX 5 9 0 -1
BITMAP
452700
882B10
030000
0D4000
2F4000
6E0000
7C0000
4C0000
010000
ENDCHAR
STARTCHAR eth
ENCODING 240
SWIDTH 541 0
DWIDTH 5 0
BBX 6 6 -1 0
BITMAP
004000
02FD40
05D6C4
2FF67A
06ECE3
06E810
ENDCHAR
STARTCHAR ntilde
ENCODING 241
SWIDTH 564 0
DWIDTH 5 0
BBX 8 8 -1 0
BITMAP
0004B692
000C8EA0
00210300
00AC2F30
02FB5E00
09FAAC00
1FCEF800
0C37B100
ENDCHAR
STARTCHAR ograve
ENCODING 242
SWIDTH 628 0
DWIDTH 6 0
BBX 6 10 0 -1
BITMAP
004500
006F60
0005D0
001600
01BF60
1DDBA0
9C11E2
D748F4
8FFD70
011000
ENDCHAR
STARTCHAR oacute
ENCODING 243
SWIDTH 628 0
DWIDTH 6 0
BBX 6 10 0 -1
BITMAP
000450
004F90
00B700
001600
01BF60
1DDBA0
9C11E2
D748F4
8FFD70
011000
ENDCHAR
STARTCHAR ocircumflex
ENCODING 244
SWIDTH 628 0
DWIDTH 6 0
BBX 6 9 0 -1
BITMAP
002C80
00E8D7
003622
01BF60
1DDBA0
9C11E2
D748F4
8FFD70
011000
ENDCHAR
STARTCHAR otilde
ENCODING 245
SWIDTH 628 0
DWIDTH 6 0
BBX 7 9 0 -1
BITMAP
004B6920
00C8EA00
00160000
01BF6000
1DDBA000
9C11E200
D748F400
8FFD7000
01100000
ENDCHAR
STARTCHAR odieresis
ENCODING 246
SWIDTH 628 0
DWIDTH 6 0
BBX 6 9 0 -1
BITMAP
006245
00C469
001600
01BF60
1DDBA0
9C11E2
D748F4
8FFD70
011000
ENDCHAR
STARTCHAR divide
ENCODING 247
SWIDTH 559 0
DWIDTH 5 0
BBX 5 6 0 0
BITMAP
002000
00E600
027400
DFFF70
254000
0A9000
ENDCHAR
STARTCHAR oslash
ENCODING 248
SWIDTH 632 0
DWIDTH 6 0
BBX 6 7 0 -1
BITMAP
000632
01BFF4
1CDFD0
9D9CE2
DBFAF5
9FFD70
3E2000
ENDCHAR
STARTCHAR ugrave
ENCODING 249
SWIDTH 584 0
DWIDTH 5 0
BBX 6 9 0 0
BITMAP
018000
03EA00
003C30
000020
3600A5
6D00E6
8B09E1
7EDF50
2ED500
ENDCHAR
STARTCHAR uacute
ENCODING 250
SWIDTH 584 0
DWIDTH 5 0
BBX 6 8 0 0
BITMAP
000180
001CD1
006B30
3600A5
6D00E6
8B09E1
7EDF50
2ED500
ENDCHAR
STARTCHAR ucircumflex
ENCODING 251
SWIDTH 584 0
DWIDTH 5 0
BBX 6 8 0 0
BITMAP
006D40
04E7E2
012050
3600A5
6D00E6
8B09E1
7EDF50
2ED500
ENDCHAR
STARTCHAR udieresis
ENCODING 252
SWIDTH 584 0
DWIDTH 5 0
BBX 6 8 0 0
BITMAP
026082
05B1B3
000020
3600A5
6D00E6
8B09E1
7EDF50
2ED500
ENDCHAR
STARTCHAR yacute
ENCODING 253
SWIDTH 400 0
DWIDTH 4 0
BBX 5 10 0 -1
BITMAP
000360
003EA0
00A800
310410
7B4F60
4EE900
0ED000
3F4000
8B0000
120000
ENDCHAR
STARTCHAR thorn
ENCODING 254
SWIDTH 579 0
DWIDTH 5 0
BBX 6 6 0 0
BITMAP
050000
3F8620
6E8BE2
AC6DD1
BFC710
890000
ENDCHAR
STARTCHAR ydieresis
ENCODING 255
SWIDTH 400 0
DWIDTH 4 0
BBX 5 9 0 -1
BITMAP
054370
0973B0
310410
7B4F60
4EE900
0ED000
3F4000
8B0000
120000
ENDCHAR
STARTCHAR dotlessi
ENCODING 305
SWIDTH 320 0
DWIDTH 3 0
BBX 3 7 0 -1
BITMAP
0300
0D40
2F40
6E00
7C00
4C00
0100
ENDCHAR
STARTCHAR Lslash
ENCODING 321
SWIDTH 632 0
DWIDTH 6 0
BBX 7 8 -1 -1
BITMAP
00450000
00BF0000
01FD3000
6DFC5000
6EE00000
0DDACA20
09FDBB50
00100000
ENDCHAR
STARTCHAR lslash
ENCODING 322
SWIDTH 533 0
DWIDTH 5 0
BBX 6 7 -1 -1
BITMAP
004100
00E700
05FA10
AFD500
3EA661
0AFDC7
001000
ENDCHAR
STARTCHAR OE
ENCODING 338
SWIDTH 1212 0
DWIDTH 11 0
BBX 12 8 0 -1
BITMAP
000480003550
006FF4BEFFD1
07FDE7ED7300
4FA06EDFFC10
BC002FF98400
DC7AEFE78B40
6EFEA7FFEC30
001000010000
ENDCHAR
STARTCHAR oe
ENCODING 339
SWIDTH 1010 0
DWIDTH 9 0
BBX 10 7 0 -1
BITMAP
0016001350
01BF6BFFD2
1DDBADC700
9C11EFFE40
D748FE3540
8FFD9FFE80
0110011000
ENDCHAR
STARTCHAR Scaron
ENCODING 352
SWIDTH 576 0
DWIDTH 5 0
BBX 7 11 0 -1
BITMAP
00B27600
008ED200
00041000
00268500
4CFFFE10
DFE31100
6BDE1000
000C7000
27DF3000
7FC30000
01000000
ENDCHAR
STARTCHAR scaron
ENCODING 353
SWIDTH 463 0
DWIDTH 4 0
BBX 6 10 0 -1
BITMAP
0A3670
06EE30
003200
002640
5CFEE1
DFA100
259800
13B900
8FA100
110000
ENDCHAR
STARTCHAR Ydieresis
ENCODING 376
SWIDTH 493 0
DWIDTH 4 0
BBX 6 10 0 -1
BITMAP
026082
05B1B3
340181
6E1CF4
4FBF60
1EFA00
0BE200
4F7000
8E0000
020000
ENDCHAR
STARTCHAR Zcaron
ENCODING 381
SWIDTH 664 0
DWIDTH 6 0
BBX 8 11 -1 -1
BITMAP
0002B1A3
0000AEC1
00000510
00466640
009FFFF2
0002BF90
004DF700
07FD4000
1FE69D60
0DFFD910
01520000
ENDCHAR
STARTCHAR zcaron
ENCODING 382
SWIDTH 547 0
DWIDTH 5 0
BBX 6 10 0 -1
BITMAP
00B276
008ED2
000410
044430
0CEFF2
008F60
2CE500
EC4740
EFFC40
251000
ENDCHAR
STARTCHAR circumflex
ENCODING 710
SWIDTH 754 0
DWIDTH 7 0
BBX 4 3 2 4
BITMAP
1BA0
B9B9
3002
ENDCHAR
STARTCHAR caron
ENCODING 711
SWIDTH 754 0
DWIDTH 7 0
BBX 4 3 2 4
BITMAP
A458
5EE4
0320
ENDCHAR
STARTCHAR breve
ENCODING 728
SWIDTH 754 0
DWIDTH 7 0
BBX 4 2 2 5
BITMAP
A458
6ED5
ENDCHAR
STARTCHAR dotaccent
ENCODING 729
SWIDTH 754 0
DWIDTH 7 0
BBX 2 2 3 5
BITMAP
53
A7
ENDCHAR
STARTCHAR ring
ENCODING 730
SWIDTH 754 0
DWIDTH 7 0
BBX 4 4 2 4
BITMAP
0030
0AD0
5EE3
1740
ENDCHAR
STARTCHAR ogonek
ENCODING 731
SWIDTH 754 0
DWIDTH 7 0
BBX 4 4 2 -3
BITMAP
0200
4800
1DA9
0155
ENDCHAR
STARTCHAR tilde
ENCODING 732
SWIDTH 754 0
DWIDTH 7 0
BBX 5 2 1 5
BITMAP
06B5A0
2D9E80
ENDCHAR
STARTCHAR hungarumlaut
ENCODING 733
SWIDTH 754 0
DWIDTH 7 0
BBX 6 3 1 4
BITMAP
028072
1DCAE4
7A3D30
ENDCHAR
STARTCHAR endash
ENCODING 8211
SWIDTH 588 0
DWIDTH 5 0
BBX 5 2 0 1
BITMAP
BFFF80
342200
ENDCHAR
STARTCHAR emdash
ENCODING 8212
SWIDTH 878 0
DWIDTH 8 0
BBX 8 3 0 1
BITMAP
00112100
BFFFFFD2
14211100
ENDCHAR
STARTCHAR quoteleft
ENCODING 8216
SWIDTH 203 0
DWIDTH 2 0
BBX 3 3 0 4
BITMAP
0880
1F70
2D10
ENDCHAR
STARTCHAR quoteright
ENCODING 8217
SWIDTH 199 0
DWIDTH 2 0
BBX 3 3 0 4
BITMAP
0760
0D90
3D20
ENDCHAR
STARTCHAR quotesinglbase
ENCODING 8218
SWIDTH 204 0
DWIDTH 2 0
BBX 3 4 -1 -2
BITMAP
0200
5F10
BC00
6200
ENDCHAR
STARTCHAR quotedblleft
ENCODING 8220
SWIDTH 410 0
DWIDTH 4 0
BBX 5 4 0 3
BITMAP
096A60
1F8F50
2F4C00
010000
ENDCHAR
STARTCHAR quotedblright
ENCODING 8221
SWIDTH 425 0
DWIDTH 4 0
BBX 5 3 0 4
BITMAP
076660
0D9D90
3D6D10
ENDCHAR
STARTCHAR quotedblbase
ENCODING 8222
SWIDTH 430 0
DWIDTH 4 0
BBX 5 4 -1 -2
BITMAP
020200
5F5F20
BCBB00
626100
ENDCHAR
STARTCHAR bullet
ENCODING 8226
SWIDTH 299 0
DWIDTH 3 0
BBX 3 3 0 1
BITMAP
4800
AF10
2300
ENDCHAR
STARTCHAR ellipsis
ENCODING 8230
SWIDTH 768 0
DWIDTH 7 0
BBX 8 3 -1 -1
BITMAP
04122040
2F3BA4F1
02011020
ENDCHAR
STARTCHAR perthousand
ENCODING 8240
SWIDTH 889 0
DWIDTH 8 0
BBX 8 7 0 0
BITMAP
01300200
1DB06C00
8DF5D300
267D2000
06D7B078
4D4EE8DE
872CA6C9
ENDCHAR
STARTCHAR guilsinglleft
ENCODING 8249
SWIDTH 322 0
DWIDTH 3 0
BBX 3 5 0 -1
BITMAP
0470
8E30
E600
3D20
0100
ENDCHAR
STARTCHAR guilsinglright
ENCODING 8250
SWIDTH 341 0
DWIDTH 3 0
BBX 4 5 -1 -1
BITMAP
0830
04E4
05E5
2D20
0100
ENDCHAR
STARTCHAR fraction
ENCODING 8260
SWIDTH 541 0
DWIDTH 5 0
BBX 5 8 0 -1
BITMAP
000050
0009B0
005E20
03E400
2D6000
B90000
D40000
100000
ENDCHAR
STARTCHAR Euro
ENCODING 8364
SWIDTH 565 0
DWIDTH 5 0
BBX 6 6 -1 0
BITMAP
000032
001AFA
01DE61
1CFEC1
07EA72
006CD6
ENDCHAR
STARTCHAR Delta
ENCODING 8710
SWIDTH 403 0
DWIDTH 4 0
BBX 6 7 -1 -1
BITMAP
004662
02EFC7
002F10
007B00
01D800
3FED20
010000
ENDCHAR
STARTCHAR minus
ENCODING 8722
SWIDTH 548 0
DWIDTH 5 0
BBX 5 3 0 1
BITMAP
001000
DFFF50
432200
ENDCHAR
STARTCHAR approxequal
ENCODING 8776
SWIDTH 323 0
DWIDTH 3 0
BBX 3 7 0 0
BITMAP
0410
0E60
3F80
6F30
9F00
9E00
5D00
ENDCHAR
STARTCHAR fi
ENCODING 64257
SWIDTH 810 0
DWIDTH 7 0
BBX 8 7 -1 -1
BITMAP
00026612
05DFCA9A
04F400BA
1BFCB0E6
0DB631F3
0C3000D3
01000010
ENDCHAR
STARTCHAR fl
ENCODING 64258
SWIDTH 1012 0
DWIDTH 9 0
BBX 10 7 -1 -1
BITMAP
0002662300
05DFCABC00
04F400E700
1BFCB4F200
0DB638D573
0C3005FECB
0100001000
ENDCHAR
STARTCHAR .notdef
ENCODING -1
SWIDTH 370 0
DWIDTH 3 0
BBX 1 1 0 0
BITMAP
00
ENDCHAR
ENDFONT
